<svg width="1200" height="1200" viewBox="0 0 1200 1200" fill="none" xmlns="http://www.w3.org/2000/svg">
  <rect width="1200" height="1200" rx="48" fill="url(#paint0_linear)"/>
  <circle cx="332" cy="332" r="210" fill="url(#paint1_radial)" fill-opacity="0.92"/>
  <circle cx="874" cy="372" r="162" fill="#0EA5E9" fill-opacity="0.22"/>
  <circle cx="860" cy="884" r="240" fill="#1D4ED8" fill-opacity="0.18"/>
  <path d="M202 770C316 612.667 458 534 628 534C798 534 936 611.333 1042 766" stroke="#FFFFFF" stroke-opacity="0.12" stroke-width="24" stroke-linecap="round"/>
  <rect x="166" y="160" width="292" height="172" rx="32" fill="#08101D" stroke="#FFFFFF" stroke-opacity="0.12"/>
  <rect x="742" y="196" width="270" height="150" rx="32" fill="#08101D" stroke="#FFFFFF" stroke-opacity="0.12"/>
  <rect x="186" y="190" width="180" height="16" rx="8" fill="#E0F2FE"/>
  <rect x="186" y="221" width="236" height="12" rx="6" fill="#17314E"/>
  <rect x="186" y="252" width="204" height="12" rx="6" fill="#17314E"/>
  <rect x="774" y="226" width="142" height="16" rx="8" fill="#E0F2FE"/>
  <rect x="774" y="257" width="198" height="12" rx="6" fill="#17314E"/>
  <rect x="774" y="288" width="174" height="12" rx="6" fill="#17314E"/>
  <rect x="214" y="770" width="324" height="212" rx="36" fill="#08101D" stroke="#FFFFFF" stroke-opacity="0.12"/>
  <rect x="590" y="696" width="398" height="286" rx="36" fill="#08101D" stroke="#FFFFFF" stroke-opacity="0.12"/>
  <rect x="244" y="812" width="158" height="18" rx="9" fill="#E0F2FE"/>
  <rect x="244" y="846" width="224" height="12" rx="6" fill="#17314E"/>
  <rect x="244" y="874" width="188" height="12" rx="6" fill="#17314E"/>
  <rect x="244" y="914" width="110" height="44" rx="22" fill="#0EA5E9"/>
  <rect x="626" y="748" width="192" height="18" rx="9" fill="#E0F2FE"/>
  <rect x="626" y="782" width="312" height="12" rx="6" fill="#17314E"/>
  <rect x="626" y="812" width="284" height="12" rx="6" fill="#17314E"/>
  <rect x="626" y="870" width="286" height="68" rx="22" fill="url(#paint2_linear)"/>
  <defs>
    <linearGradient id="paint0_linear" x1="70" y1="64" x2="1076" y2="1148" gradientUnits="userSpaceOnUse">
      <stop stop-color="#0F172A"/>
      <stop offset="0.55" stop-color="#020617"/>
      <stop offset="1" stop-color="#082F49"/>
    </linearGradient>
    <radialGradient id="paint1_radial" cx="0" cy="0" r="1" gradientUnits="userSpaceOnUse" gradientTransform="translate(332 332) rotate(90) scale(210)">
      <stop stop-color="#7DD3FC"/>
      <stop offset="1" stop-color="#0EA5E9" stop-opacity="0.08"/>
    </radialGradient>
    <linearGradient id="paint2_linear" x1="626" y1="870" x2="912" y2="938" gradientUnits="userSpaceOnUse">
      <stop stop-color="#0EA5E9"/>
      <stop offset="1" stop-color="#1D4ED8"/>
    </linearGradient>
  </defs>
</svg>
