<svg width="1280" height="820" viewBox="0 0 1280 820" fill="none" xmlns="http://www.w3.org/2000/svg">
  <rect width="1280" height="820" rx="48" fill="url(#paint0_linear)"/>
  <rect x="42" y="42" width="1196" height="736" rx="36" fill="#F8FBFD" stroke="#B4C9DD" stroke-opacity="0.88"/>
  <rect x="92" y="92" width="1096" height="62" rx="20" fill="#EDE1DB"/>
  <circle cx="132" cy="123" r="9" fill="#FB7185"/>
  <circle cx="161" cy="123" r="9" fill="#FBBF24"/>
  <circle cx="190" cy="123" r="9" fill="#22C55E"/>
  <rect x="92" y="196" width="420" height="540" rx="28" fill="#CCDbe9"/>
  <rect x="540" y="196" width="648" height="540" rx="28" fill="#CCDbe9"/>
  <rect x="122" y="228" width="360" height="210" rx="24" fill="url(#paint1_linear)"/>
  <rect x="122" y="466" width="360" height="240" rx="24" fill="#F8FBFD" stroke="#B4C9DD"/>
  <rect x="570" y="228" width="588" height="112" rx="24" fill="#F8FBFD" stroke="#B4C9DD"/>
  <rect x="570" y="366" width="588" height="340" rx="24" fill="#F8FBFD" stroke="#B4C9DD"/>
  <rect x="154" y="262" width="202" height="16" rx="8" fill="#F8FBFD"/>
  <rect x="154" y="293" width="286" height="12" rx="6" fill="#F1B3A1" fill-opacity="0.62"/>
  <rect x="154" y="321" width="258" height="12" rx="6" fill="#F1B3A1" fill-opacity="0.42"/>
  <rect x="154" y="360" width="118" height="44" rx="22" fill="#B4C9DD"/>
  <rect x="298" y="360" width="118" height="44" rx="22" fill="#F8FBFD" stroke="#F1B3A1"/>
  <rect x="150" y="499" width="106" height="12" rx="6" fill="#F1B3A1"/>
  <rect x="150" y="525" width="220" height="10" rx="5" fill="#667789"/>
  <rect x="150" y="550" width="188" height="10" rx="5" fill="#667789"/>
  <rect x="150" y="599" width="302" height="60" rx="18" fill="url(#paint2_linear)"/>
  <rect x="602" y="259" width="132" height="16" rx="8" fill="#F8FBFD"/>
  <rect x="602" y="288" width="492" height="12" rx="6" fill="#667789"/>
  <rect x="602" y="406" width="182" height="16" rx="8" fill="#F8FBFD"/>
  <rect x="602" y="442" width="524" height="12" rx="6" fill="#667789"/>
  <rect x="602" y="468" width="488" height="12" rx="6" fill="#667789"/>
  <rect x="602" y="494" width="536" height="12" rx="6" fill="#667789"/>
  <rect x="602" y="540" width="240" height="60" rx="18" fill="url(#paint3_linear)"/>
  <rect x="862" y="540" width="250" height="60" rx="18" fill="#F8FBFD" stroke="#F1B3A1"/>
  <rect x="602" y="626" width="140" height="16" rx="8" fill="#F1B3A1"/>
  <rect x="602" y="654" width="296" height="12" rx="6" fill="#667789"/>
  <path d="M865 471C898.286 471 925.273 444.013 925.273 410.727C925.273 377.44 898.286 350.453 865 350.453C831.714 350.453 804.727 377.44 804.727 410.727C804.727 444.013 831.714 471 865 471Z" fill="#F1B3A1" fill-opacity="0.3"/>
  <path d="M860 382L889 410.5L860 439L831 410.5L860 382Z" fill="#B4C9DD"/>
  <defs>
    <linearGradient id="paint0_linear" x1="66" y1="54" x2="1152" y2="776" gradientUnits="userSpaceOnUse">
      <stop stop-color="#F8FBFD"/>
      <stop offset="0.58" stop-color="#DDE4ED"/>
      <stop offset="1" stop-color="#EDE1DB"/>
    </linearGradient>
    <linearGradient id="paint1_linear" x1="122" y1="228" x2="482" y2="438" gradientUnits="userSpaceOnUse">
      <stop stop-color="#B4C9DD"/>
      <stop offset="1" stop-color="#F1B3A1"/>
    </linearGradient>
    <linearGradient id="paint2_linear" x1="150" y1="599" x2="452" y2="659" gradientUnits="userSpaceOnUse">
      <stop stop-color="#CCDbe9"/>
      <stop offset="1" stop-color="#B4C9DD"/>
    </linearGradient>
    <linearGradient id="paint3_linear" x1="602" y1="540" x2="842" y2="600" gradientUnits="userSpaceOnUse">
      <stop stop-color="#F1B3A1"/>
      <stop offset="1" stop-color="#B4C9DD"/>
    </linearGradient>
  </defs>
</svg>
