<svg width="1280" height="820" viewBox="0 0 1280 820" fill="none" xmlns="http://www.w3.org/2000/svg">
  <rect width="1280" height="820" rx="48" fill="url(#paint0_linear)"/>
  <rect x="42" y="42" width="1196" height="736" rx="36" fill="#07101E" stroke="#FFFFFF" stroke-opacity="0.12"/>
  <rect x="92" y="92" width="1096" height="62" rx="20" fill="#0C1B31"/>
  <circle cx="132" cy="123" r="9" fill="#FB7185"/>
  <circle cx="161" cy="123" r="9" fill="#FBBF24"/>
  <circle cx="190" cy="123" r="9" fill="#22C55E"/>
  <rect x="256" y="106" width="294" height="34" rx="17" fill="#102542"/>
  <rect x="92" y="196" width="318" height="540" rx="28" fill="#0C1B31"/>
  <rect x="440" y="196" width="748" height="540" rx="28" fill="#0C1B31"/>
  <rect x="470" y="228" width="268" height="178" rx="24" fill="url(#paint1_linear)"/>
  <rect x="766" y="228" width="392" height="178" rx="24" fill="#081222" stroke="#16304D"/>
  <rect x="470" y="434" width="688" height="272" rx="24" fill="#081222" stroke="#16304D"/>
  <rect x="122" y="230" width="258" height="88" rx="20" fill="#081222" stroke="#16304D"/>
  <rect x="122" y="340" width="258" height="88" rx="20" fill="#081222" stroke="#16304D"/>
  <rect x="122" y="450" width="258" height="88" rx="20" fill="#081222" stroke="#16304D"/>
  <rect x="122" y="560" width="258" height="146" rx="24" fill="url(#paint2_linear)"/>
  <path d="M510 359C561.333 305.667 620.333 279 687 279C753.667 279 812.667 305.667 864 359" stroke="#E0F2FE" stroke-width="14" stroke-linecap="round"/>
  <path d="M532 334L553.5 355.5L594 315" stroke="#7DD3FC" stroke-width="12" stroke-linecap="round" stroke-linejoin="round"/>
  <rect x="808" y="264" width="146" height="18" rx="9" fill="#E0F2FE" fill-opacity="0.88"/>
  <rect x="808" y="301" width="294" height="14" rx="7" fill="#164E63"/>
  <rect x="808" y="332" width="208" height="14" rx="7" fill="#164E63"/>
  <rect x="494" y="468" width="166" height="16" rx="8" fill="#E0F2FE"/>
  <rect x="494" y="503" width="612" height="12" rx="6" fill="#17314E"/>
  <rect x="494" y="530" width="565" height="12" rx="6" fill="#17314E"/>
  <rect x="494" y="557" width="585" height="12" rx="6" fill="#17314E"/>
  <rect x="494" y="614" width="220" height="44" rx="22" fill="#0EA5E9"/>
  <rect x="732" y="614" width="178" height="44" rx="22" fill="#0F172A" stroke="#1D4ED8"/>
  <rect x="150" y="257" width="96" height="12" rx="6" fill="#7DD3FC"/>
  <rect x="150" y="282" width="184" height="10" rx="5" fill="#17314E"/>
  <rect x="150" y="367" width="84" height="12" rx="6" fill="#7DD3FC"/>
  <rect x="150" y="392" width="156" height="10" rx="5" fill="#17314E"/>
  <rect x="150" y="477" width="104" height="12" rx="6" fill="#7DD3FC"/>
  <rect x="150" y="502" width="172" height="10" rx="5" fill="#17314E"/>
  <rect x="152" y="587" width="146" height="16" rx="8" fill="#E0F2FE"/>
  <rect x="152" y="619" width="176" height="12" rx="6" fill="#164E63"/>
  <rect x="152" y="646" width="134" height="12" rx="6" fill="#164E63"/>
  <defs>
    <linearGradient id="paint0_linear" x1="80" y1="60" x2="1130" y2="780" gradientUnits="userSpaceOnUse">
      <stop stop-color="#0F172A"/>
      <stop offset="0.55" stop-color="#020617"/>
      <stop offset="1" stop-color="#082F49"/>
    </linearGradient>
    <linearGradient id="paint1_linear" x1="470" y1="228" x2="738" y2="406" gradientUnits="userSpaceOnUse">
      <stop stop-color="#0EA5E9"/>
      <stop offset="1" stop-color="#1D4ED8"/>
    </linearGradient>
    <linearGradient id="paint2_linear" x1="122" y1="560" x2="380" y2="706" gradientUnits="userSpaceOnUse">
      <stop stop-color="#0E7490"/>
      <stop offset="1" stop-color="#1E3A8A"/>
    </linearGradient>
  </defs>
</svg>
